<mxfile host="app.diagrams.net" modified="2023-10-05T14:21:46.051Z" agent="Mozilla/5.0 (X11; Linux x86_64; rv:109.0) Gecko/20100101 Firefox/114.0" etag="DY-XqGvYy8Jj8be3lenA" version="22.0.2" type="github">
  <diagram name="Page-1" id="o67EySk3LSE3K6hvLNPV">
    <mxGraphModel dx="2739" dy="2229" grid="1" gridSize="10" guides="1" tooltips="1" connect="1" arrows="1" fold="1" page="1" pageScale="1" pageWidth="827" pageHeight="1169" math="0" shadow="0">
      <root>
        <mxCell id="0" />
        <mxCell id="1" parent="0" />
        <mxCell id="iaIAoVfE06Dp4TXyiZUW-13" style="edgeStyle=orthogonalEdgeStyle;rounded=0;orthogonalLoop=1;jettySize=auto;html=1;entryX=1;entryY=0.5;entryDx=0;entryDy=0;endArrow=none;endFill=0;" parent="1" source="iaIAoVfE06Dp4TXyiZUW-2" target="iaIAoVfE06Dp4TXyiZUW-11" edge="1">
          <mxGeometry relative="1" as="geometry" />
        </mxCell>
        <mxCell id="iaIAoVfE06Dp4TXyiZUW-41" style="edgeStyle=orthogonalEdgeStyle;rounded=0;orthogonalLoop=1;jettySize=auto;html=1;endArrow=none;endFill=0;entryX=0;entryY=0.5;entryDx=0;entryDy=0;exitX=0.75;exitY=1;exitDx=0;exitDy=0;" parent="1" source="iaIAoVfE06Dp4TXyiZUW-2" target="iaIAoVfE06Dp4TXyiZUW-47" edge="1">
          <mxGeometry relative="1" as="geometry">
            <Array as="points">
              <mxPoint x="600" y="410" />
              <mxPoint x="600" y="450" />
            </Array>
            <mxPoint x="720" y="480" as="sourcePoint" />
          </mxGeometry>
        </mxCell>
        <mxCell id="D8eDu6SlqsCw2s4CWz6H-12" style="edgeStyle=orthogonalEdgeStyle;rounded=0;orthogonalLoop=1;jettySize=auto;html=1;exitX=1;exitY=0;exitDx=0;exitDy=0;endArrow=none;endFill=0;" edge="1" parent="1" source="iaIAoVfE06Dp4TXyiZUW-2" target="D8eDu6SlqsCw2s4CWz6H-13">
          <mxGeometry relative="1" as="geometry">
            <mxPoint x="690" y="350" as="targetPoint" />
            <Array as="points">
              <mxPoint x="600" y="350" />
            </Array>
          </mxGeometry>
        </mxCell>
        <mxCell id="iaIAoVfE06Dp4TXyiZUW-2" value="Curso" style="whiteSpace=wrap;html=1;align=center;fillColor=#ffe6cc;strokeColor=#d79b00;" parent="1" vertex="1">
          <mxGeometry x="500" y="370" width="100" height="40" as="geometry" />
        </mxCell>
        <mxCell id="iaIAoVfE06Dp4TXyiZUW-35" style="edgeStyle=orthogonalEdgeStyle;rounded=0;orthogonalLoop=1;jettySize=auto;html=1;entryX=0;entryY=0.5;entryDx=0;entryDy=0;endArrow=none;endFill=0;exitX=0.75;exitY=1;exitDx=0;exitDy=0;" parent="1" source="iaIAoVfE06Dp4TXyiZUW-3" target="iaIAoVfE06Dp4TXyiZUW-8" edge="1">
          <mxGeometry relative="1" as="geometry">
            <Array as="points">
              <mxPoint x="60" y="410" />
              <mxPoint x="60" y="420" />
              <mxPoint x="210" y="420" />
              <mxPoint x="210" y="540" />
            </Array>
          </mxGeometry>
        </mxCell>
        <mxCell id="iaIAoVfE06Dp4TXyiZUW-48" style="edgeStyle=orthogonalEdgeStyle;rounded=0;orthogonalLoop=1;jettySize=auto;html=1;exitX=0.25;exitY=0;exitDx=0;exitDy=0;endArrow=none;endFill=0;" parent="1" source="iaIAoVfE06Dp4TXyiZUW-3" target="iaIAoVfE06Dp4TXyiZUW-49" edge="1">
          <mxGeometry relative="1" as="geometry">
            <mxPoint x="-110" y="210" as="targetPoint" />
            <Array as="points">
              <mxPoint x="-10" y="370" />
              <mxPoint x="-10" y="330" />
              <mxPoint x="-70" y="330" />
            </Array>
          </mxGeometry>
        </mxCell>
        <mxCell id="iaIAoVfE06Dp4TXyiZUW-55" style="edgeStyle=orthogonalEdgeStyle;rounded=0;orthogonalLoop=1;jettySize=auto;html=1;exitX=0.25;exitY=0;exitDx=0;exitDy=0;entryX=1;entryY=1;entryDx=0;entryDy=0;endArrow=none;endFill=0;" parent="1" source="iaIAoVfE06Dp4TXyiZUW-3" target="iaIAoVfE06Dp4TXyiZUW-50" edge="1">
          <mxGeometry relative="1" as="geometry">
            <Array as="points">
              <mxPoint x="-10" y="370" />
              <mxPoint x="-10" y="340" />
              <mxPoint x="-165" y="340" />
            </Array>
          </mxGeometry>
        </mxCell>
        <mxCell id="iaIAoVfE06Dp4TXyiZUW-3" value="Estudiante" style="whiteSpace=wrap;html=1;align=center;fillColor=#ffe6cc;strokeColor=#d79b00;" parent="1" vertex="1">
          <mxGeometry x="-20" y="370" width="100" height="40" as="geometry" />
        </mxCell>
        <mxCell id="iaIAoVfE06Dp4TXyiZUW-66" style="edgeStyle=orthogonalEdgeStyle;rounded=0;orthogonalLoop=1;jettySize=auto;html=1;entryX=0.5;entryY=1;entryDx=0;entryDy=0;endArrow=none;endFill=0;" parent="1" source="iaIAoVfE06Dp4TXyiZUW-4" target="iaIAoVfE06Dp4TXyiZUW-64" edge="1">
          <mxGeometry relative="1" as="geometry" />
        </mxCell>
        <mxCell id="iaIAoVfE06Dp4TXyiZUW-67" style="edgeStyle=orthogonalEdgeStyle;rounded=0;orthogonalLoop=1;jettySize=auto;html=1;exitX=1;exitY=0.25;exitDx=0;exitDy=0;entryX=0.5;entryY=1;entryDx=0;entryDy=0;endArrow=none;endFill=0;" parent="1" edge="1">
          <mxGeometry relative="1" as="geometry">
            <mxPoint x="570" y="170" as="sourcePoint" />
            <mxPoint x="740" y="90" as="targetPoint" />
          </mxGeometry>
        </mxCell>
        <mxCell id="iaIAoVfE06Dp4TXyiZUW-68" style="edgeStyle=orthogonalEdgeStyle;rounded=0;orthogonalLoop=1;jettySize=auto;html=1;exitX=1;exitY=0;exitDx=0;exitDy=0;entryX=1;entryY=1;entryDx=0;entryDy=0;endArrow=none;endFill=0;" parent="1" source="iaIAoVfE06Dp4TXyiZUW-4" target="iaIAoVfE06Dp4TXyiZUW-63" edge="1">
          <mxGeometry relative="1" as="geometry" />
        </mxCell>
        <mxCell id="iaIAoVfE06Dp4TXyiZUW-70" style="edgeStyle=orthogonalEdgeStyle;rounded=0;orthogonalLoop=1;jettySize=auto;html=1;exitX=0.5;exitY=0;exitDx=0;exitDy=0;entryX=0.5;entryY=1;entryDx=0;entryDy=0;endArrow=none;endFill=0;" parent="1" source="iaIAoVfE06Dp4TXyiZUW-4" target="iaIAoVfE06Dp4TXyiZUW-65" edge="1">
          <mxGeometry relative="1" as="geometry" />
        </mxCell>
        <mxCell id="iaIAoVfE06Dp4TXyiZUW-4" value="Profesor" style="whiteSpace=wrap;html=1;align=center;fillColor=#ffe6cc;strokeColor=#d79b00;" parent="1" vertex="1">
          <mxGeometry x="500" y="170" width="100" height="40" as="geometry" />
        </mxCell>
        <mxCell id="iaIAoVfE06Dp4TXyiZUW-5" value="Asistencia" style="whiteSpace=wrap;html=1;align=center;fillColor=#ffe6cc;strokeColor=#d79b00;" parent="1" vertex="1">
          <mxGeometry y="80" width="100" height="40" as="geometry" />
        </mxCell>
        <mxCell id="iaIAoVfE06Dp4TXyiZUW-6" value="Actividades extracurriculares" style="whiteSpace=wrap;html=1;align=center;fillColor=#ffe6cc;strokeColor=#d79b00;" parent="1" vertex="1">
          <mxGeometry x="-600" y="370" width="100" height="40" as="geometry" />
        </mxCell>
        <mxCell id="iaIAoVfE06Dp4TXyiZUW-75" style="edgeStyle=orthogonalEdgeStyle;rounded=0;orthogonalLoop=1;jettySize=auto;html=1;endArrow=none;endFill=0;" parent="1" source="iaIAoVfE06Dp4TXyiZUW-7" target="iaIAoVfE06Dp4TXyiZUW-76" edge="1">
          <mxGeometry relative="1" as="geometry">
            <mxPoint x="730" y="560" as="targetPoint" />
            <Array as="points" />
          </mxGeometry>
        </mxCell>
        <mxCell id="iaIAoVfE06Dp4TXyiZUW-79" style="edgeStyle=orthogonalEdgeStyle;rounded=0;orthogonalLoop=1;jettySize=auto;html=1;exitX=0.844;exitY=0.989;exitDx=0;exitDy=0;entryX=0;entryY=0;entryDx=0;entryDy=0;endArrow=none;endFill=0;exitPerimeter=0;" parent="1" source="iaIAoVfE06Dp4TXyiZUW-7" target="iaIAoVfE06Dp4TXyiZUW-77" edge="1">
          <mxGeometry relative="1" as="geometry">
            <Array as="points">
              <mxPoint x="580" y="650" />
              <mxPoint x="580" y="670" />
              <mxPoint x="695" y="670" />
            </Array>
          </mxGeometry>
        </mxCell>
        <mxCell id="iaIAoVfE06Dp4TXyiZUW-7" value="Materias" style="whiteSpace=wrap;html=1;align=center;fillColor=#ffe6cc;strokeColor=#d79b00;" parent="1" vertex="1">
          <mxGeometry x="500" y="610" width="100" height="40" as="geometry" />
        </mxCell>
        <mxCell id="iaIAoVfE06Dp4TXyiZUW-38" style="edgeStyle=orthogonalEdgeStyle;rounded=0;orthogonalLoop=1;jettySize=auto;html=1;entryX=0;entryY=0.5;entryDx=0;entryDy=0;endArrow=none;endFill=0;" parent="1" source="iaIAoVfE06Dp4TXyiZUW-8" target="iaIAoVfE06Dp4TXyiZUW-7" edge="1">
          <mxGeometry relative="1" as="geometry">
            <Array as="points">
              <mxPoint x="340" y="630" />
            </Array>
          </mxGeometry>
        </mxCell>
        <mxCell id="iaIAoVfE06Dp4TXyiZUW-8" value="Calificaciones" style="whiteSpace=wrap;html=1;align=center;fillColor=#ffe6cc;strokeColor=#d79b00;" parent="1" vertex="1">
          <mxGeometry x="290" y="520" width="100" height="40" as="geometry" />
        </mxCell>
        <mxCell id="iaIAoVfE06Dp4TXyiZUW-12" style="edgeStyle=orthogonalEdgeStyle;rounded=0;orthogonalLoop=1;jettySize=auto;html=1;entryX=1;entryY=0.5;entryDx=0;entryDy=0;endArrow=none;endFill=0;" parent="1" source="iaIAoVfE06Dp4TXyiZUW-11" target="iaIAoVfE06Dp4TXyiZUW-3" edge="1">
          <mxGeometry relative="1" as="geometry" />
        </mxCell>
        <mxCell id="iaIAoVfE06Dp4TXyiZUW-11" value="Matriculado" style="shape=rhombus;perimeter=rhombusPerimeter;whiteSpace=wrap;html=1;align=center;fillColor=#dae8fc;strokeColor=#6c8ebf;" parent="1" vertex="1">
          <mxGeometry x="240" y="360" width="120" height="60" as="geometry" />
        </mxCell>
        <mxCell id="iaIAoVfE06Dp4TXyiZUW-15" style="edgeStyle=orthogonalEdgeStyle;rounded=0;orthogonalLoop=1;jettySize=auto;html=1;entryX=0;entryY=0.5;entryDx=0;entryDy=0;endArrow=none;endFill=0;" parent="1" source="iaIAoVfE06Dp4TXyiZUW-14" target="iaIAoVfE06Dp4TXyiZUW-3" edge="1">
          <mxGeometry relative="1" as="geometry" />
        </mxCell>
        <mxCell id="iaIAoVfE06Dp4TXyiZUW-16" style="edgeStyle=orthogonalEdgeStyle;rounded=0;orthogonalLoop=1;jettySize=auto;html=1;exitX=0;exitY=0.5;exitDx=0;exitDy=0;entryX=1;entryY=0.5;entryDx=0;entryDy=0;endArrow=none;endFill=0;" parent="1" source="iaIAoVfE06Dp4TXyiZUW-14" target="iaIAoVfE06Dp4TXyiZUW-6" edge="1">
          <mxGeometry relative="1" as="geometry" />
        </mxCell>
        <mxCell id="iaIAoVfE06Dp4TXyiZUW-14" value="Realiza" style="shape=rhombus;perimeter=rhombusPerimeter;whiteSpace=wrap;html=1;align=center;fillColor=#dae8fc;strokeColor=#6c8ebf;" parent="1" vertex="1">
          <mxGeometry x="-360" y="360" width="120" height="60" as="geometry" />
        </mxCell>
        <mxCell id="iaIAoVfE06Dp4TXyiZUW-18" style="edgeStyle=orthogonalEdgeStyle;rounded=0;orthogonalLoop=1;jettySize=auto;html=1;entryX=0.5;entryY=1;entryDx=0;entryDy=0;endArrow=none;endFill=0;" parent="1" source="iaIAoVfE06Dp4TXyiZUW-17" target="iaIAoVfE06Dp4TXyiZUW-5" edge="1">
          <mxGeometry relative="1" as="geometry" />
        </mxCell>
        <mxCell id="iaIAoVfE06Dp4TXyiZUW-19" style="edgeStyle=orthogonalEdgeStyle;rounded=0;orthogonalLoop=1;jettySize=auto;html=1;exitX=0.5;exitY=1;exitDx=0;exitDy=0;endArrow=none;endFill=0;" parent="1" source="iaIAoVfE06Dp4TXyiZUW-17" target="iaIAoVfE06Dp4TXyiZUW-3" edge="1">
          <mxGeometry relative="1" as="geometry" />
        </mxCell>
        <mxCell id="iaIAoVfE06Dp4TXyiZUW-17" value="Tiene" style="shape=rhombus;perimeter=rhombusPerimeter;whiteSpace=wrap;html=1;align=center;fillColor=#dae8fc;strokeColor=#6c8ebf;" parent="1" vertex="1">
          <mxGeometry x="-30" y="220" width="120" height="60" as="geometry" />
        </mxCell>
        <mxCell id="iaIAoVfE06Dp4TXyiZUW-21" style="edgeStyle=orthogonalEdgeStyle;rounded=0;orthogonalLoop=1;jettySize=auto;html=1;entryX=0.5;entryY=1;entryDx=0;entryDy=0;endArrow=none;endFill=0;" parent="1" source="iaIAoVfE06Dp4TXyiZUW-20" target="iaIAoVfE06Dp4TXyiZUW-2" edge="1">
          <mxGeometry relative="1" as="geometry" />
        </mxCell>
        <mxCell id="iaIAoVfE06Dp4TXyiZUW-22" style="edgeStyle=orthogonalEdgeStyle;rounded=0;orthogonalLoop=1;jettySize=auto;html=1;entryX=0.5;entryY=0;entryDx=0;entryDy=0;endArrow=none;endFill=0;" parent="1" source="iaIAoVfE06Dp4TXyiZUW-20" target="iaIAoVfE06Dp4TXyiZUW-7" edge="1">
          <mxGeometry relative="1" as="geometry" />
        </mxCell>
        <mxCell id="iaIAoVfE06Dp4TXyiZUW-20" value="Tiene" style="shape=rhombus;perimeter=rhombusPerimeter;whiteSpace=wrap;html=1;align=center;fillColor=#dae8fc;strokeColor=#6c8ebf;" parent="1" vertex="1">
          <mxGeometry x="490" y="480" width="120" height="60" as="geometry" />
        </mxCell>
        <mxCell id="iaIAoVfE06Dp4TXyiZUW-24" style="edgeStyle=orthogonalEdgeStyle;rounded=0;orthogonalLoop=1;jettySize=auto;html=1;exitX=0.5;exitY=0;exitDx=0;exitDy=0;entryX=0.5;entryY=1;entryDx=0;entryDy=0;endArrow=none;endFill=0;" parent="1" source="iaIAoVfE06Dp4TXyiZUW-23" target="iaIAoVfE06Dp4TXyiZUW-4" edge="1">
          <mxGeometry relative="1" as="geometry" />
        </mxCell>
        <mxCell id="iaIAoVfE06Dp4TXyiZUW-25" value="" style="edgeStyle=orthogonalEdgeStyle;rounded=0;orthogonalLoop=1;jettySize=auto;html=1;endArrow=none;endFill=0;" parent="1" source="iaIAoVfE06Dp4TXyiZUW-23" target="iaIAoVfE06Dp4TXyiZUW-2" edge="1">
          <mxGeometry relative="1" as="geometry" />
        </mxCell>
        <mxCell id="iaIAoVfE06Dp4TXyiZUW-23" value="Imparte" style="shape=rhombus;perimeter=rhombusPerimeter;whiteSpace=wrap;html=1;align=center;fillColor=#dae8fc;strokeColor=#6c8ebf;" parent="1" vertex="1">
          <mxGeometry x="490" y="260" width="120" height="60" as="geometry" />
        </mxCell>
        <mxCell id="iaIAoVfE06Dp4TXyiZUW-36" value="Tiene" style="shape=rhombus;perimeter=rhombusPerimeter;whiteSpace=wrap;html=1;align=center;fillColor=#dae8fc;strokeColor=#6c8ebf;" parent="1" vertex="1">
          <mxGeometry x="150" y="430" width="120" height="60" as="geometry" />
        </mxCell>
        <mxCell id="iaIAoVfE06Dp4TXyiZUW-37" value="Tiene" style="shape=rhombus;perimeter=rhombusPerimeter;whiteSpace=wrap;html=1;align=center;fillColor=#dae8fc;strokeColor=#6c8ebf;" parent="1" vertex="1">
          <mxGeometry x="280" y="600" width="120" height="60" as="geometry" />
        </mxCell>
        <mxCell id="iaIAoVfE06Dp4TXyiZUW-47" value="Aula" style="whiteSpace=wrap;html=1;align=center;fillColor=#ffe6cc;strokeColor=#d79b00;" parent="1" vertex="1">
          <mxGeometry x="827" y="430" width="100" height="40" as="geometry" />
        </mxCell>
        <mxCell id="iaIAoVfE06Dp4TXyiZUW-49" value="ID" style="ellipse;whiteSpace=wrap;html=1;align=center;fontStyle=4;fillColor=#fff2cc;strokeColor=#d6b656;" parent="1" vertex="1">
          <mxGeometry x="-120" y="100" width="100" height="40" as="geometry" />
        </mxCell>
        <mxCell id="iaIAoVfE06Dp4TXyiZUW-50" value="Nombre" style="ellipse;whiteSpace=wrap;html=1;align=center;fillColor=#d5e8d4;strokeColor=#82b366;" parent="1" vertex="1">
          <mxGeometry x="-250" y="110" width="100" height="40" as="geometry" />
        </mxCell>
        <mxCell id="iaIAoVfE06Dp4TXyiZUW-56" style="edgeStyle=orthogonalEdgeStyle;rounded=0;orthogonalLoop=1;jettySize=auto;html=1;exitX=1;exitY=1;exitDx=0;exitDy=0;endArrow=none;endFill=0;" parent="1" source="iaIAoVfE06Dp4TXyiZUW-51" edge="1">
          <mxGeometry relative="1" as="geometry">
            <Array as="points">
              <mxPoint x="-245" y="274" />
              <mxPoint x="-170" y="274" />
              <mxPoint x="-170" y="350" />
              <mxPoint x="-20" y="350" />
            </Array>
            <mxPoint x="-20" y="370" as="targetPoint" />
          </mxGeometry>
        </mxCell>
        <mxCell id="iaIAoVfE06Dp4TXyiZUW-51" value="Apellido" style="ellipse;whiteSpace=wrap;html=1;align=center;fillColor=#d5e8d4;strokeColor=#82b366;" parent="1" vertex="1">
          <mxGeometry x="-330" y="180" width="100" height="40" as="geometry" />
        </mxCell>
        <mxCell id="iaIAoVfE06Dp4TXyiZUW-57" style="edgeStyle=orthogonalEdgeStyle;rounded=0;orthogonalLoop=1;jettySize=auto;html=1;endArrow=none;endFill=0;entryX=0;entryY=0;entryDx=0;entryDy=0;exitX=0.5;exitY=1;exitDx=0;exitDy=0;" parent="1" source="iaIAoVfE06Dp4TXyiZUW-52" edge="1" target="iaIAoVfE06Dp4TXyiZUW-3">
          <mxGeometry relative="1" as="geometry">
            <mxPoint x="-20" y="380" as="targetPoint" />
            <Array as="points">
              <mxPoint x="-320" y="350" />
              <mxPoint x="-20" y="350" />
            </Array>
          </mxGeometry>
        </mxCell>
        <mxCell id="iaIAoVfE06Dp4TXyiZUW-52" value="Teléfono" style="ellipse;whiteSpace=wrap;html=1;align=center;fillColor=#d5e8d4;strokeColor=#82b366;" parent="1" vertex="1">
          <mxGeometry x="-370" y="260" width="100" height="40" as="geometry" />
        </mxCell>
        <mxCell id="iaIAoVfE06Dp4TXyiZUW-59" style="edgeStyle=orthogonalEdgeStyle;rounded=0;orthogonalLoop=1;jettySize=auto;html=1;exitX=1;exitY=0;exitDx=0;exitDy=0;entryX=0.5;entryY=1;entryDx=0;entryDy=0;endArrow=none;endFill=0;" parent="1" source="iaIAoVfE06Dp4TXyiZUW-53" target="iaIAoVfE06Dp4TXyiZUW-3" edge="1">
          <mxGeometry relative="1" as="geometry">
            <Array as="points">
              <mxPoint x="-110" y="566" />
              <mxPoint x="-110" y="490" />
              <mxPoint x="30" y="490" />
            </Array>
          </mxGeometry>
        </mxCell>
        <mxCell id="iaIAoVfE06Dp4TXyiZUW-53" value="Dirección" style="ellipse;whiteSpace=wrap;html=1;align=center;fillColor=#d5e8d4;strokeColor=#82b366;" parent="1" vertex="1">
          <mxGeometry x="-190" y="560" width="100" height="40" as="geometry" />
        </mxCell>
        <mxCell id="iaIAoVfE06Dp4TXyiZUW-58" style="edgeStyle=orthogonalEdgeStyle;rounded=0;orthogonalLoop=1;jettySize=auto;html=1;entryX=0.25;entryY=1;entryDx=0;entryDy=0;endArrow=none;endFill=0;" parent="1" source="iaIAoVfE06Dp4TXyiZUW-54" target="iaIAoVfE06Dp4TXyiZUW-3" edge="1">
          <mxGeometry relative="1" as="geometry" />
        </mxCell>
        <mxCell id="iaIAoVfE06Dp4TXyiZUW-54" value="Fecha de nacimiento" style="ellipse;whiteSpace=wrap;html=1;align=center;fillColor=#d5e8d4;strokeColor=#82b366;" parent="1" vertex="1">
          <mxGeometry x="-340" y="460" width="100" height="40" as="geometry" />
        </mxCell>
        <mxCell id="iaIAoVfE06Dp4TXyiZUW-61" value="Apellido" style="ellipse;whiteSpace=wrap;html=1;align=center;fillColor=#d5e8d4;strokeColor=#82b366;" parent="1" vertex="1">
          <mxGeometry x="720" y="60" width="100" height="40" as="geometry" />
        </mxCell>
        <mxCell id="iaIAoVfE06Dp4TXyiZUW-71" style="edgeStyle=orthogonalEdgeStyle;rounded=0;orthogonalLoop=1;jettySize=auto;html=1;exitX=1;exitY=1;exitDx=0;exitDy=0;entryX=0.25;entryY=0;entryDx=0;entryDy=0;endArrow=none;endFill=0;" parent="1" source="iaIAoVfE06Dp4TXyiZUW-62" target="iaIAoVfE06Dp4TXyiZUW-4" edge="1">
          <mxGeometry relative="1" as="geometry" />
        </mxCell>
        <mxCell id="iaIAoVfE06Dp4TXyiZUW-62" value="Teléfono" style="ellipse;whiteSpace=wrap;html=1;align=center;fillColor=#d5e8d4;strokeColor=#82b366;" parent="1" vertex="1">
          <mxGeometry x="390" y="50" width="100" height="40" as="geometry" />
        </mxCell>
        <mxCell id="iaIAoVfE06Dp4TXyiZUW-63" value="Nombre" style="ellipse;whiteSpace=wrap;html=1;align=center;fillColor=#d5e8d4;strokeColor=#82b366;" parent="1" vertex="1">
          <mxGeometry x="610" y="40" width="100" height="40" as="geometry" />
        </mxCell>
        <mxCell id="iaIAoVfE06Dp4TXyiZUW-64" value="ID" style="whiteSpace=wrap;html=1;align=center;fillColor=#fff2cc;strokeColor=#d6b656;shape=ellipse;perimeter=ellipsePerimeter;fontStyle=4;" parent="1" vertex="1">
          <mxGeometry x="750" y="120" width="100" height="40" as="geometry" />
        </mxCell>
        <mxCell id="iaIAoVfE06Dp4TXyiZUW-65" value="Especialidad" style="ellipse;whiteSpace=wrap;html=1;align=center;fillColor=#d5e8d4;strokeColor=#82b366;" parent="1" vertex="1">
          <mxGeometry x="500" y="40" width="100" height="40" as="geometry" />
        </mxCell>
        <mxCell id="iaIAoVfE06Dp4TXyiZUW-73" style="edgeStyle=orthogonalEdgeStyle;rounded=0;orthogonalLoop=1;jettySize=auto;html=1;exitX=1;exitY=1;exitDx=0;exitDy=0;entryX=0;entryY=0;entryDx=0;entryDy=0;endArrow=none;endFill=0;" parent="1" source="iaIAoVfE06Dp4TXyiZUW-72" target="iaIAoVfE06Dp4TXyiZUW-4" edge="1">
          <mxGeometry relative="1" as="geometry" />
        </mxCell>
        <mxCell id="iaIAoVfE06Dp4TXyiZUW-72" value="Emails" style="whiteSpace=wrap;html=1;align=center;fillColor=#d5e8d4;strokeColor=#82b366;shape=doubleEllipse;perimeter=ellipsePerimeter;margin=3;" parent="1" vertex="1">
          <mxGeometry x="330" y="90" width="100" height="40" as="geometry" />
        </mxCell>
        <mxCell id="iaIAoVfE06Dp4TXyiZUW-76" value="ID" style="ellipse;whiteSpace=wrap;html=1;align=center;fontStyle=4;fillColor=#fff2cc;strokeColor=#d6b656;" parent="1" vertex="1">
          <mxGeometry x="710" y="600" width="100" height="40" as="geometry" />
        </mxCell>
        <mxCell id="iaIAoVfE06Dp4TXyiZUW-77" value="Nombre" style="ellipse;whiteSpace=wrap;html=1;align=center;fillColor=#d5e8d4;strokeColor=#82b366;" parent="1" vertex="1">
          <mxGeometry x="680" y="690" width="100" height="40" as="geometry" />
        </mxCell>
        <mxCell id="iaIAoVfE06Dp4TXyiZUW-81" style="edgeStyle=orthogonalEdgeStyle;rounded=0;orthogonalLoop=1;jettySize=auto;html=1;exitX=0.5;exitY=0;exitDx=0;exitDy=0;entryX=0.5;entryY=1;entryDx=0;entryDy=0;endArrow=none;endFill=0;" parent="1" source="iaIAoVfE06Dp4TXyiZUW-78" target="iaIAoVfE06Dp4TXyiZUW-7" edge="1">
          <mxGeometry relative="1" as="geometry" />
        </mxCell>
        <mxCell id="iaIAoVfE06Dp4TXyiZUW-78" value="Descripción" style="ellipse;whiteSpace=wrap;html=1;align=center;fillColor=#d5e8d4;strokeColor=#82b366;" parent="1" vertex="1">
          <mxGeometry x="500" y="750" width="100" height="40" as="geometry" />
        </mxCell>
        <mxCell id="Zy8SgtylAL3crHDaoGTW-3" value="Se imparte" style="shape=rhombus;perimeter=rhombusPerimeter;whiteSpace=wrap;html=1;align=center;fillColor=#dae8fc;strokeColor=#6c8ebf;" parent="1" vertex="1">
          <mxGeometry x="650" y="420" width="120" height="60" as="geometry" />
        </mxCell>
        <mxCell id="Zy8SgtylAL3crHDaoGTW-6" value="1:1" style="text;html=1;align=center;verticalAlign=middle;resizable=0;points=[];autosize=1;strokeColor=none;fillColor=none;" parent="1" vertex="1">
          <mxGeometry x="787" y="420" width="40" height="30" as="geometry" />
        </mxCell>
        <mxCell id="Zy8SgtylAL3crHDaoGTW-7" value="1:N" style="text;html=1;align=center;verticalAlign=middle;resizable=0;points=[];autosize=1;strokeColor=none;fillColor=none;" parent="1" vertex="1">
          <mxGeometry x="605" y="420" width="40" height="30" as="geometry" />
        </mxCell>
        <mxCell id="Zy8SgtylAL3crHDaoGTW-8" value="1:N" style="text;html=1;align=center;verticalAlign=middle;resizable=0;points=[];autosize=1;strokeColor=none;fillColor=none;" parent="1" vertex="1">
          <mxGeometry x="455" y="360" width="40" height="30" as="geometry" />
        </mxCell>
        <mxCell id="Zy8SgtylAL3crHDaoGTW-9" value="1:N" style="text;html=1;align=center;verticalAlign=middle;resizable=0;points=[];autosize=1;strokeColor=none;fillColor=none;" parent="1" vertex="1">
          <mxGeometry x="85" y="360" width="40" height="30" as="geometry" />
        </mxCell>
        <mxCell id="Zy8SgtylAL3crHDaoGTW-10" value="N:M" style="text;html=1;align=center;verticalAlign=middle;resizable=0;points=[];autosize=1;strokeColor=none;fillColor=none;" parent="1" vertex="1">
          <mxGeometry x="300" y="330" width="50" height="30" as="geometry" />
        </mxCell>
        <mxCell id="D8eDu6SlqsCw2s4CWz6H-1" value="1:N" style="text;html=1;align=center;verticalAlign=middle;resizable=0;points=[];autosize=1;strokeColor=none;fillColor=none;" vertex="1" parent="1">
          <mxGeometry x="505" y="340" width="40" height="30" as="geometry" />
        </mxCell>
        <mxCell id="D8eDu6SlqsCw2s4CWz6H-2" value="1:1" style="text;html=1;align=center;verticalAlign=middle;resizable=0;points=[];autosize=1;strokeColor=none;fillColor=none;" vertex="1" parent="1">
          <mxGeometry x="500" y="210" width="40" height="30" as="geometry" />
        </mxCell>
        <mxCell id="D8eDu6SlqsCw2s4CWz6H-3" value="1:N" style="text;html=1;align=center;verticalAlign=middle;resizable=0;points=[];autosize=1;strokeColor=none;fillColor=none;" vertex="1" parent="1">
          <mxGeometry x="505" y="580" width="40" height="30" as="geometry" />
        </mxCell>
        <mxCell id="D8eDu6SlqsCw2s4CWz6H-4" value="1:1" style="text;html=1;align=center;verticalAlign=middle;resizable=0;points=[];autosize=1;strokeColor=none;fillColor=none;" vertex="1" parent="1">
          <mxGeometry x="505" y="410" width="40" height="30" as="geometry" />
        </mxCell>
        <mxCell id="D8eDu6SlqsCw2s4CWz6H-6" value="1:N" style="text;html=1;align=center;verticalAlign=middle;resizable=0;points=[];autosize=1;strokeColor=none;fillColor=none;" vertex="1" parent="1">
          <mxGeometry x="-65" y="360" width="40" height="30" as="geometry" />
        </mxCell>
        <mxCell id="D8eDu6SlqsCw2s4CWz6H-7" value="1:N" style="text;html=1;align=center;verticalAlign=middle;resizable=0;points=[];autosize=1;strokeColor=none;fillColor=none;" vertex="1" parent="1">
          <mxGeometry x="-495" y="360" width="40" height="30" as="geometry" />
        </mxCell>
        <mxCell id="D8eDu6SlqsCw2s4CWz6H-8" value="N:M" style="text;html=1;align=center;verticalAlign=middle;resizable=0;points=[];autosize=1;strokeColor=none;fillColor=none;" vertex="1" parent="1">
          <mxGeometry x="-325" y="330" width="50" height="30" as="geometry" />
        </mxCell>
        <mxCell id="D8eDu6SlqsCw2s4CWz6H-10" value="1:N" style="text;html=1;align=center;verticalAlign=middle;resizable=0;points=[];autosize=1;strokeColor=none;fillColor=none;" vertex="1" parent="1">
          <mxGeometry x="5" y="120" width="40" height="30" as="geometry" />
        </mxCell>
        <mxCell id="D8eDu6SlqsCw2s4CWz6H-11" value="1:1" style="text;html=1;align=center;verticalAlign=middle;resizable=0;points=[];autosize=1;strokeColor=none;fillColor=none;" vertex="1" parent="1">
          <mxGeometry x="-5" y="340" width="40" height="30" as="geometry" />
        </mxCell>
        <mxCell id="D8eDu6SlqsCw2s4CWz6H-13" value="Horario" style="whiteSpace=wrap;html=1;align=center;fillColor=#ffe6cc;strokeColor=#d79b00;" vertex="1" parent="1">
          <mxGeometry x="827" y="320" width="100" height="40" as="geometry" />
        </mxCell>
        <mxCell id="D8eDu6SlqsCw2s4CWz6H-14" value="Tiene" style="shape=rhombus;perimeter=rhombusPerimeter;whiteSpace=wrap;html=1;align=center;fillColor=#dae8fc;strokeColor=#6c8ebf;" vertex="1" parent="1">
          <mxGeometry x="660" y="320" width="120" height="60" as="geometry" />
        </mxCell>
        <mxCell id="D8eDu6SlqsCw2s4CWz6H-15" value="1:N" style="text;html=1;align=center;verticalAlign=middle;resizable=0;points=[];autosize=1;strokeColor=none;fillColor=none;" vertex="1" parent="1">
          <mxGeometry x="782" y="320" width="40" height="30" as="geometry" />
        </mxCell>
        <mxCell id="D8eDu6SlqsCw2s4CWz6H-16" value="1:1" style="text;html=1;align=center;verticalAlign=middle;resizable=0;points=[];autosize=1;strokeColor=none;fillColor=none;" vertex="1" parent="1">
          <mxGeometry x="605" y="320" width="40" height="30" as="geometry" />
        </mxCell>
        <mxCell id="D8eDu6SlqsCw2s4CWz6H-18" value="1:1" style="text;html=1;align=center;verticalAlign=middle;resizable=0;points=[];autosize=1;strokeColor=none;fillColor=none;" vertex="1" parent="1">
          <mxGeometry x="65" y="420" width="40" height="30" as="geometry" />
        </mxCell>
        <mxCell id="D8eDu6SlqsCw2s4CWz6H-19" value="1:N" style="text;html=1;align=center;verticalAlign=middle;resizable=0;points=[];autosize=1;strokeColor=none;fillColor=none;" vertex="1" parent="1">
          <mxGeometry x="245" y="510" width="40" height="30" as="geometry" />
        </mxCell>
        <mxCell id="D8eDu6SlqsCw2s4CWz6H-20" value="1:1" style="text;html=1;align=center;verticalAlign=middle;resizable=0;points=[];autosize=1;strokeColor=none;fillColor=none;" vertex="1" parent="1">
          <mxGeometry x="455" y="600" width="40" height="30" as="geometry" />
        </mxCell>
        <mxCell id="D8eDu6SlqsCw2s4CWz6H-21" value="1:N" style="text;html=1;align=center;verticalAlign=middle;resizable=0;points=[];autosize=1;strokeColor=none;fillColor=none;" vertex="1" parent="1">
          <mxGeometry x="345" y="560" width="40" height="30" as="geometry" />
        </mxCell>
        <mxCell id="D8eDu6SlqsCw2s4CWz6H-26" style="edgeStyle=orthogonalEdgeStyle;rounded=0;orthogonalLoop=1;jettySize=auto;html=1;endArrow=none;endFill=0;" edge="1" parent="1" source="D8eDu6SlqsCw2s4CWz6H-23" target="iaIAoVfE06Dp4TXyiZUW-11">
          <mxGeometry relative="1" as="geometry">
            <Array as="points">
              <mxPoint x="180" y="330" />
              <mxPoint x="300" y="330" />
            </Array>
          </mxGeometry>
        </mxCell>
        <mxCell id="D8eDu6SlqsCw2s4CWz6H-23" value="Identificador" style="ellipse;whiteSpace=wrap;html=1;align=center;fillColor=#d5e8d4;strokeColor=#82b366;" vertex="1" parent="1">
          <mxGeometry x="130" y="260" width="100" height="40" as="geometry" />
        </mxCell>
        <mxCell id="D8eDu6SlqsCw2s4CWz6H-25" style="edgeStyle=orthogonalEdgeStyle;rounded=0;orthogonalLoop=1;jettySize=auto;html=1;entryX=0.5;entryY=0;entryDx=0;entryDy=0;endArrow=none;endFill=0;" edge="1" parent="1" source="D8eDu6SlqsCw2s4CWz6H-24" target="iaIAoVfE06Dp4TXyiZUW-11">
          <mxGeometry relative="1" as="geometry">
            <Array as="points">
              <mxPoint x="300" y="310" />
              <mxPoint x="300" y="310" />
            </Array>
          </mxGeometry>
        </mxCell>
        <mxCell id="D8eDu6SlqsCw2s4CWz6H-24" value="Fecha" style="ellipse;whiteSpace=wrap;html=1;align=center;fillColor=#d5e8d4;strokeColor=#82b366;" vertex="1" parent="1">
          <mxGeometry x="240" y="250" width="100" height="40" as="geometry" />
        </mxCell>
        <mxCell id="D8eDu6SlqsCw2s4CWz6H-28" style="edgeStyle=orthogonalEdgeStyle;rounded=0;orthogonalLoop=1;jettySize=auto;html=1;endArrow=none;endFill=0;" edge="1" parent="1" source="D8eDu6SlqsCw2s4CWz6H-27" target="iaIAoVfE06Dp4TXyiZUW-3">
          <mxGeometry relative="1" as="geometry" />
        </mxCell>
        <mxCell id="D8eDu6SlqsCw2s4CWz6H-27" value="Horario" style="ellipse;whiteSpace=wrap;html=1;align=center;fillColor=#d5e8d4;strokeColor=#82b366;" vertex="1" parent="1">
          <mxGeometry x="-5" y="550" width="100" height="40" as="geometry" />
        </mxCell>
        <mxCell id="D8eDu6SlqsCw2s4CWz6H-30" style="edgeStyle=orthogonalEdgeStyle;rounded=0;orthogonalLoop=1;jettySize=auto;html=1;entryX=0;entryY=0.5;entryDx=0;entryDy=0;endArrow=none;endFill=0;" edge="1" parent="1" source="D8eDu6SlqsCw2s4CWz6H-29" target="iaIAoVfE06Dp4TXyiZUW-4">
          <mxGeometry relative="1" as="geometry" />
        </mxCell>
        <mxCell id="D8eDu6SlqsCw2s4CWz6H-29" value="Horario" style="ellipse;whiteSpace=wrap;html=1;align=center;fillColor=#d5e8d4;strokeColor=#82b366;" vertex="1" parent="1">
          <mxGeometry x="330" y="160" width="100" height="40" as="geometry" />
        </mxCell>
        <mxCell id="D8eDu6SlqsCw2s4CWz6H-32" style="edgeStyle=orthogonalEdgeStyle;rounded=0;orthogonalLoop=1;jettySize=auto;html=1;entryX=0.5;entryY=0;entryDx=0;entryDy=0;endArrow=none;endFill=0;" edge="1" parent="1" source="D8eDu6SlqsCw2s4CWz6H-31" target="iaIAoVfE06Dp4TXyiZUW-6">
          <mxGeometry relative="1" as="geometry" />
        </mxCell>
        <mxCell id="D8eDu6SlqsCw2s4CWz6H-31" value="ID" style="ellipse;whiteSpace=wrap;html=1;align=center;fontStyle=4;fillColor=#fff2cc;strokeColor=#d6b656;" vertex="1" parent="1">
          <mxGeometry x="-600" y="200" width="100" height="40" as="geometry" />
        </mxCell>
        <mxCell id="D8eDu6SlqsCw2s4CWz6H-34" style="edgeStyle=orthogonalEdgeStyle;rounded=0;orthogonalLoop=1;jettySize=auto;html=1;entryX=0.25;entryY=0;entryDx=0;entryDy=0;endArrow=none;endFill=0;" edge="1" parent="1" source="D8eDu6SlqsCw2s4CWz6H-33" target="iaIAoVfE06Dp4TXyiZUW-6">
          <mxGeometry relative="1" as="geometry" />
        </mxCell>
        <mxCell id="D8eDu6SlqsCw2s4CWz6H-33" value="Nombre" style="ellipse;whiteSpace=wrap;html=1;align=center;fillColor=#d5e8d4;strokeColor=#82b366;" vertex="1" parent="1">
          <mxGeometry x="-710" y="230" width="100" height="40" as="geometry" />
        </mxCell>
        <mxCell id="D8eDu6SlqsCw2s4CWz6H-36" style="edgeStyle=orthogonalEdgeStyle;rounded=0;orthogonalLoop=1;jettySize=auto;html=1;entryX=0;entryY=0.5;entryDx=0;entryDy=0;endArrow=none;endFill=0;" edge="1" parent="1" source="D8eDu6SlqsCw2s4CWz6H-35" target="iaIAoVfE06Dp4TXyiZUW-6">
          <mxGeometry relative="1" as="geometry" />
        </mxCell>
        <mxCell id="D8eDu6SlqsCw2s4CWz6H-35" value="Descripción" style="ellipse;whiteSpace=wrap;html=1;align=center;fillColor=#d5e8d4;strokeColor=#82b366;" vertex="1" parent="1">
          <mxGeometry x="-780" y="370" width="100" height="40" as="geometry" />
        </mxCell>
        <mxCell id="D8eDu6SlqsCw2s4CWz6H-38" style="edgeStyle=orthogonalEdgeStyle;rounded=0;orthogonalLoop=1;jettySize=auto;html=1;exitX=0.5;exitY=0;exitDx=0;exitDy=0;entryX=0.25;entryY=1;entryDx=0;entryDy=0;endArrow=none;endFill=0;" edge="1" parent="1" source="D8eDu6SlqsCw2s4CWz6H-37" target="iaIAoVfE06Dp4TXyiZUW-6">
          <mxGeometry relative="1" as="geometry" />
        </mxCell>
        <mxCell id="D8eDu6SlqsCw2s4CWz6H-37" value="Horario" style="ellipse;whiteSpace=wrap;html=1;align=center;fillColor=#d5e8d4;strokeColor=#82b366;" vertex="1" parent="1">
          <mxGeometry x="-660" y="500" width="100" height="40" as="geometry" />
        </mxCell>
        <mxCell id="D8eDu6SlqsCw2s4CWz6H-40" style="edgeStyle=orthogonalEdgeStyle;rounded=0;orthogonalLoop=1;jettySize=auto;html=1;entryX=0.25;entryY=0;entryDx=0;entryDy=0;endArrow=none;endFill=0;" edge="1" parent="1" source="D8eDu6SlqsCw2s4CWz6H-39" target="iaIAoVfE06Dp4TXyiZUW-5">
          <mxGeometry relative="1" as="geometry" />
        </mxCell>
        <mxCell id="D8eDu6SlqsCw2s4CWz6H-39" value="ID" style="ellipse;whiteSpace=wrap;html=1;align=center;fontStyle=4;fillColor=#fff2cc;strokeColor=#d6b656;" vertex="1" parent="1">
          <mxGeometry x="-25" y="-80" width="100" height="40" as="geometry" />
        </mxCell>
        <mxCell id="D8eDu6SlqsCw2s4CWz6H-42" style="edgeStyle=orthogonalEdgeStyle;rounded=0;orthogonalLoop=1;jettySize=auto;html=1;entryX=0.75;entryY=0;entryDx=0;entryDy=0;endArrow=none;endFill=0;" edge="1" parent="1" source="D8eDu6SlqsCw2s4CWz6H-41" target="iaIAoVfE06Dp4TXyiZUW-5">
          <mxGeometry relative="1" as="geometry">
            <Array as="points">
              <mxPoint x="160" y="-20" />
              <mxPoint x="75" y="-20" />
            </Array>
          </mxGeometry>
        </mxCell>
        <mxCell id="D8eDu6SlqsCw2s4CWz6H-41" value="Fecha" style="ellipse;whiteSpace=wrap;html=1;align=center;fillColor=#d5e8d4;strokeColor=#82b366;" vertex="1" parent="1">
          <mxGeometry x="110" y="-80" width="100" height="40" as="geometry" />
        </mxCell>
        <mxCell id="D8eDu6SlqsCw2s4CWz6H-44" style="edgeStyle=orthogonalEdgeStyle;rounded=0;orthogonalLoop=1;jettySize=auto;html=1;entryX=1;entryY=0.25;entryDx=0;entryDy=0;endArrow=none;endFill=0;" edge="1" parent="1" source="D8eDu6SlqsCw2s4CWz6H-43" target="iaIAoVfE06Dp4TXyiZUW-5">
          <mxGeometry relative="1" as="geometry" />
        </mxCell>
        <mxCell id="D8eDu6SlqsCw2s4CWz6H-43" value="Presencia" style="ellipse;whiteSpace=wrap;html=1;align=center;fillColor=#d5e8d4;strokeColor=#82b366;" vertex="1" parent="1">
          <mxGeometry x="200" y="-20" width="100" height="40" as="geometry" />
        </mxCell>
      </root>
    </mxGraphModel>
  </diagram>
</mxfile>
